<?xml version="1.0" standalone="no"?><!DOCTYPE svg PUBLIC "-//W3C//DTD SVG 1.1//EN" "http://www.w3.org/Graphics/SVG/1.1/DTD/svg11.dtd"><svg class="icon" width="32px" height="32.00px" viewBox="0 0 1024 1024" version="1.1" xmlns="http://www.w3.org/2000/svg"><path d="M357.353238 279.350496a278.594155 278.594155 0 0 0 93.216025 208.303966 216.636124 216.636124 0 0 0 62.144016 9.063702c119.836775 0 217.33047-97.493695 217.330471-217.330471S632.550054 61.995228 512.713279 61.995228a216.636124 216.636124 0 0 0-62.181213 9.051303 278.594155 278.594155 0 0 0-93.178828 208.303965z" fill="#91B4FF" /><path d="M511.969336 61.995228c119.836775 0 217.33047 97.493695 217.330471 217.33047s-97.493695 217.318071-217.330471 217.318072-217.33047-97.481296-217.33047-217.293274 97.493695-217.355269 217.33047-217.355268m0-61.995228C357.712811 0.024798 232.668436 125.069173 232.668436 279.350496S357.712811 558.626598 511.969336 558.626598s279.3009-125.044374 279.300901-279.276102S666.275458 0.024798 511.969336 0.024798z" fill="#3778FF" /><path d="M918.075275 870.784969a424.208546 424.208546 0 0 0-16.961894-46.397228q-5.405984-12.399046-11.580708-24.512913a426.675956 426.675956 0 0 0-125.453543-148.007407 420.935198 420.935198 0 0 0-252.618154-83.321586 430.246881 430.246881 0 0 0-48.356278 2.715391c-166.14721 67.921972-283.181801 231.167805-283.181802 421.741135h756.007005a425.113676 425.113676 0 0 0-17.854626-122.217392z" fill="#91B4FF" /><path d="M238.694372 659.641623a30.997614 30.997614 0 0 1-18.598568-55.795705 482.335271 482.335271 0 0 1 35.275285-24.16574 31.001334 31.001334 0 1 1 32.73348 52.658746c-10.588785 6.583893-20.954387 13.63895-30.799229 21.078378a30.836426 30.836426 0 0 1-18.610968 6.224321zM56.527595 1023.999975a30.997614 30.997614 0 0 1-30.997614-30.997614A486.042586 486.042586 0 0 1 146.011507 672.549029a30.997614 30.997614 0 1 1 46.620411 40.854855A424.047358 424.047358 0 0 0 87.537608 993.01476a30.997614 30.997614 0 0 1-31.010013 30.985215zM967.411078 1023.999975a30.997614 30.997614 0 0 1-30.997614-30.997614 422.113107 422.113107 0 0 0-34.804121-168.627019q-5.405984-12.399046-11.580709-24.512913a426.688355 426.688355 0 0 0-125.453543-147.995008 425.287263 425.287263 0 0 0-407.035867-54.357416 30.997614 30.997614 0 1 1-22.553864-57.717557 487.146101 487.146101 0 0 1 466.514089 62.305204 487.877644 487.877644 0 0 1 143.754534 169.494953q7.067456 13.800138 13.279378 28.096237a484.319118 484.319118 0 0 1 39.912528 193.276322 30.997614 30.997614 0 0 1-31.034811 31.034811z" fill="#3778FF" /></svg>