<?xml version="1.0" standalone="no"?><!DOCTYPE svg PUBLIC "-//W3C//DTD SVG 1.1//EN" "http://www.w3.org/Graphics/SVG/1.1/DTD/svg11.dtd"><svg class="icon" width="32px" height="32.00px" viewBox="0 0 1024 1024" version="1.1" xmlns="http://www.w3.org/2000/svg"><path d="M512.3 980c-50.2 0-99.9-8.1-147.8-24.1-47.1-15.8-91.3-38.7-131.2-68.4-40.4-29.9-75.4-65.8-104.2-106.7-29.8-42.3-52.2-89.1-66.6-139.1C28.7 524.9 41.3 401.4 98 293.8c56.5-107.3 150.9-187.5 265.7-225.7 47.9-16 97.6-24.1 147.6-24.1 51.7 0 102.8 8.6 152 25.5 48.4 16.7 93.6 41 134.3 72.2 7.2 5.5 14.4 11.4 21.4 17.5 14 12.2 27.4 25.2 39.9 38.9 5.6 6.2 11.2 12.6 16.5 19.2 10.4 12.8 20.3 26.3 29.3 40.1 4.2 6.4 8.3 13.1 12.1 19.7 7.7 13.3 14.9 27.1 21.2 41 3 6.5 5.9 13.3 8.6 20.1 5.4 13.6 10.3 27.7 14.5 41.9 2 6.7 3.8 13.6 5.5 20.3l0.4 1.5c18.3 75.3 17.5 154.6-2.3 229.4-2.7 10.2-5.8 20.4-9.1 30.3-4 11.8-8.5 23.6-13.5 35.2-3.4 8-7.1 15.9-11 23.6-5.8 11.6-12 23-18.7 33.9-3.7 6.2-7.7 12.4-11.9 18.6-9.7 14.4-20.2 28.4-31.3 41.5-9.9 11.7-24.4 18.5-39.8 18.5-13.5 0-26.3-5.1-36-14.5-19.8-18.9-21.4-50.2-3.7-71.1 9.3-11 18.2-22.8 26.2-35.1 3.6-5.4 7-10.9 10.2-16.4 1.9-3.3 3.6-6.2 5.1-9 6-11 11.6-22.4 16.5-34.1 2.5-5.8 4.8-11.8 7-17.8 5.5-15.2 10-30.9 13.4-46.4 1.3-6.3 2.6-12.9 3.7-19.8 0.8-5.3 1.5-10.2 2.1-14.8 0.6-5.3 1.1-10.7 1.5-16L499.4 755c-2.8 1.6-5.8 3-8.9 4.1-5.8 2.2-12 3.3-18.2 3.3-9.1 0-18.1-2.4-26-7L156.1 587.9c1.9 8.7 4.1 17.3 6.6 25.9 13.8 47.2 36.3 90.3 67.1 128 29.7 36.5 65.8 66.5 107.3 89.3 41.5 22.8 86.2 37.1 132.9 42.5 14 1.6 28.1 2.5 42.1 2.5 34.2 0 68.5-4.9 101.9-14.7 32.2-9.4 62.7-23 90.7-40.4 8.3-5.2 17.8-7.9 27.5-7.9 13.5 0 26.2 5.1 35.9 14.4 11.7 11.2 17.4 26.8 15.7 42.9-1.7 16.1-10.6 30.3-24.4 38.9-38.3 23.8-80 42-123.9 54-40.3 11.1-81.7 16.7-123.2 16.7z m-39.8-329.5L759.2 485l-159.7-92.2v119.7c0 28.7-23.3 52-52 52h-224l149 86z m39.6-502.7c-34.2 0-68.5 4.9-101.9 14.7-47.2 13.8-90.3 36.3-128 67.1-36.5 29.7-66.5 65.8-89.3 107.3-22.8 41.5-37.1 86.2-42.5 132.9-0.2 1.4-0.3 2.8-0.5 4.2l373.3-215.5c7.9-4.6 16.9-7 26-7 10.6 0 20.8 3.2 29.5 9.1l2.4 1.4c16.8-1.9 31.3-4.4 50.9-14.9 21.7-11.7 30.8-23.3 42.3-38 4-5.1 8.3-10.5 13.2-16.1-0.1-0.1-0.2-0.1-0.3-0.2-41.5-22.8-86.2-37.1-132.9-42.5-14.1-1.7-28.2-2.5-42.2-2.5z m-16.7 312.6v-65.8l-114 65.8h114z m345.5-48.3c4.6-4.3 10.2-9 16.9-13.8-0.8-2.5-1.7-5-2.6-7.5-7.9 5.9-13.7 11.9-19.3 18.5l5 2.8z m-57.5-33.2c11-13.9 23.8-29.2 46.9-43.7-1.3-2.3-2.5-4.5-3.8-6.8-16 10.1-24.1 20.4-34 33.1-3.8 4.9-7.9 10-12.5 15.3l3.4 2.1z m-57-32.9c7.2-6.7 12.8-13.7 18.9-21.5 11.2-14.2 23.6-30.1 46.8-45.2-1.6-2-3.3-4-5-5.9-13.4 9.3-21 18.9-30.1 30.5-9.5 12.1-19.9 25.3-37 38.4l6.4 3.7z m-65.5-37.9c2.2-1 4.3-2.1 6.6-3.3 21.7-11.8 30.8-23.3 42.3-38 8.9-11.3 18.5-23.6 33.8-35.8-1.8-1.5-3.6-2.9-5.4-4.3-6.2 6.1-11.2 12.5-16.8 19.5-13.3 16.9-28.3 36-60.9 53.7-2.5 1.3-4.9 2.6-7.4 3.8l7.8 4.4z" fill="#FFF4A1" /><path d="M947.5 406.7c-0.1-0.5-0.2-1-0.4-1.5-1.6-6.6-3.4-13.1-5.3-19.5-4-13.7-8.7-27.1-13.9-40.1-2.6-6.5-5.3-12.9-8.2-19.2-6.1-13.5-12.9-26.6-20.3-39.2-3.7-6.4-7.6-12.7-11.6-18.8-8.7-13.4-18-26.2-28-38.4-5.1-6.3-10.4-12.4-15.8-18.4-12-13.2-24.8-25.6-38.2-37.2-6.7-5.8-13.5-11.4-20.5-16.8C671.5 70.1 517.4 37.9 370 87 143.1 162.7 14.7 404.6 81.6 636.2c67.8 234.9 312.9 372.5 548.6 307.9 43-11.8 82.7-29.4 118.6-51.7 17.8-11.1 20.5-35.9 5.4-50.4-10.6-10.1-26.6-11.8-39.1-4-29.6 18.4-61.6 32.7-95.6 42.6-49.8 14.5-100.9 18.8-151.9 12.9-49.3-5.8-96.5-20.9-140.2-44.9-43.8-24-81.8-55.7-113.2-94.2-32.4-39.8-56.3-85.2-70.8-135-7.5-25.6-12.2-51.5-14.3-77.6 0.4 0.9 0.8 1.8 1.3 2.7 0.1 0.1 0.1 0.3 0.2 0.4 0 0.1 0.1 0.1 0.1 0.2s0.1 0.2 0.2 0.3c2.7 4.7 6.7 8.8 11.7 11.7l313.7 181.1c8.7 5 18.7 5.5 27.4 2.2 1.9-0.7 3.8-1.5 5.7-2.6l389.8-225c5.5-3.2 9.7-7.7 12.4-13 0.1-0.1 0.1-0.3 0.2-0.4 0.1-0.2 0.2-0.4 0.3-0.7 7.1-14.9 1.6-33-12.9-41.4l-17-9.8c6.5-6.9 14.1-13.7 24.4-20.3 9.7 42.6 12.1 86 7 129.3-0.6 5.2-1.3 10.4-2.2 15.6-1.1 7-2.4 14-3.9 20.9-3.6 16.7-8.3 33-14.1 49-2.3 6.3-4.7 12.6-7.3 18.8-5.2 12.2-10.9 24.2-17.4 36-1.8 3.2-3.6 6.4-5.4 9.5-3.4 5.9-7 11.6-10.7 17.2-8.5 12.9-17.7 25.3-27.7 37-10.9 12.9-10 32 2.2 43.7 13.4 12.8 34.7 11.7 46.7-2.5 10.7-12.7 20.7-26 30-39.7 3.9-5.8 7.7-11.8 11.4-17.8 6.4-10.6 12.4-21.4 17.9-32.5 3.7-7.4 7.2-15 10.5-22.6 4.8-11 9.1-22.3 12.9-33.7 3.2-9.6 6.2-19.3 8.7-29.1 18.5-69.9 20.4-145.1 2.3-219.6zM472.4 673.6L248.7 544.4h298.6c17.7 0 32-14.3 32-32V358.1l9.7 5.6 59.3 34.2 28.2 16.3 54.5 31.5 21.4 12.3 46.7 27-326.7 188.6z m265.1-472.5c13.6 9.8 26.4 20.5 38.6 32-26.1 14.9-38.6 30.8-50.6 46.1-11.9 15.2-23.2 29.5-48.5 43.2-6.1 3.3-11.9 6-17.4 8.1L605 299c13.7-2.7 28.6-7.2 46-16.7 29-15.7 42.1-32.4 54.7-48.5 8.8-11.4 17.4-22.3 31.8-32.7z m72.4 68.3c4.2 5.1 8.2 10.4 12.1 15.7-2.1 1-4.2 2.1-6.4 3.3-28.9 15.6-42 32.2-54.6 48.3-9.1 11.6-17.8 22.7-32.7 33.4l-47.4-27.4c1.8-0.9 3.7-1.9 5.5-2.9 29-15.7 42.1-32.4 54.7-48.5 11.8-15.1 23-29.3 48-42.9 0 0 0.1 0 0.1-0.1 0.5-0.3 1-0.5 1.5-0.8 6.7 7.2 13.1 14.4 19.2 21.9z m-294.5 211H306.8L515.4 360v120.4z m272.9-75.6L747 381c12.9-10.6 21.4-21.3 29.7-31.8 11.9-15.1 23.1-29.3 48.1-42.9h0.1c3-1.6 5.9-3.1 8.7-4.4 8.7 13.3 16.5 27.1 23.4 41.3-2 1-4.1 2.1-6.2 3.2-28.7 15.5-41.7 32.1-54.3 48.2-2.7 3.4-5.4 6.8-8.2 10.2z m-657.8 62.7c5.8-49.3 20.9-96.5 44.9-140.2 24-43.8 55.7-81.8 94.2-113.2 39.8-32.4 85.2-56.3 135-70.8s100.9-18.8 151.9-12.9c49.3 5.8 96.5 20.9 140.2 44.9 8 4.4 15.8 9 23.4 13.9-13.2 10.7-21.8 21.6-30.2 32.2-11.9 15.2-23.2 29.5-48.5 43.2-25.5 13.8-44.5 15.8-64.7 17.9l-8.8-5.1c-9.9-7.1-23.4-8.2-34.7-1.7L142.4 501.4c-7.2 4.1-12.2 10.7-14.5 18-0.3-17.3 0.5-34.6 2.6-51.9z m713.9-30.3L805.9 415c2.2-2.7 4.3-5.4 6.4-8.1 11.9-15.2 23.2-29.5 48.4-43.1h0.1c1.5-0.8 3.1-1.6 4.6-2.4 5.9 14 11.1 28.4 15.4 43.1 0.2 0.8 0.5 1.6 0.7 2.4-17.1 9.8-28.1 20.1-37.1 30.3z" fill="#FF9E3E" /><path d="M947.5 406.7c-0.1-0.5-0.2-1-0.4-1.5-1.6-6.6-3.4-13.1-5.3-19.5-4-13.7-8.7-27.1-13.9-40.1-2.6-6.5-5.3-12.9-8.2-19.2-6.1-13.5-12.9-26.6-20.3-39.2-3.7-6.4-7.6-12.7-11.6-18.8-8.7-13.4-18-26.2-28-38.4-5.1-6.3-10.4-12.4-15.8-18.4-12-13.2-24.8-25.6-38.2-37.2-6.7-5.8-13.5-11.4-20.5-16.8C671.5 70.1 517.4 37.9 370 87 143.1 162.7 14.7 404.6 81.6 636.2c67.8 234.9 312.9 372.5 548.6 307.9 43-11.8 82.7-29.4 118.6-51.7 17.8-11.1 20.5-35.9 5.4-50.4-10.6-10.1-26.6-11.8-39.1-4-29.6 18.4-61.6 32.7-95.6 42.6-49.8 14.5-100.9 18.8-151.9 12.9-49.3-5.8-96.5-20.9-140.2-44.9-43.8-24-81.8-55.7-113.2-94.2-32.4-39.8-56.3-85.2-70.8-135-7.5-25.6-12.2-51.5-14.3-77.6 0.4 0.9 0.8 1.8 1.3 2.7 0.1 0.1 0.1 0.3 0.2 0.4 0 0.1 0.1 0.1 0.1 0.2s0.1 0.2 0.2 0.3c2.7 4.7 6.7 8.8 11.7 11.7l313.7 181.1c8.7 5 18.7 5.5 27.4 2.2 1.9-0.7 3.8-1.5 5.7-2.6l389.8-225c5.5-3.2 9.7-7.7 12.4-13 0.1-0.1 0.1-0.3 0.2-0.4 0.1-0.2 0.2-0.4 0.3-0.7 7.1-14.9 1.6-33-12.9-41.4l-17-9.8c6.5-6.9 14.1-13.7 24.4-20.3 9.7 42.6 12.1 86 7 129.3-0.6 5.2-1.3 10.4-2.2 15.6-1.1 7-2.4 14-3.9 20.9-3.6 16.7-8.3 33-14.1 49-2.3 6.3-4.7 12.6-7.3 18.8-5.2 12.2-10.9 24.2-17.4 36-1.8 3.2-3.6 6.4-5.4 9.5-3.4 5.9-7 11.6-10.7 17.2-8.5 12.9-17.7 25.3-27.7 37-10.9 12.9-10 32 2.2 43.7 13.4 12.8 34.7 11.7 46.7-2.5 10.7-12.7 20.7-26 30-39.7 3.9-5.8 7.7-11.8 11.4-17.8 6.4-10.6 12.4-21.4 17.9-32.5 3.7-7.4 7.2-15 10.5-22.6 4.8-11 9.1-22.3 12.9-33.7 3.2-9.6 6.2-19.3 8.7-29.1 18.5-69.9 20.4-145.1 2.3-219.6zM472.4 673.6L248.7 544.4h298.6c17.7 0 32-14.3 32-32V358.1l9.7 5.6 59.3 34.2 28.2 16.3 54.5 31.5 21.4 12.3 46.7 27-326.7 188.6z m265.1-472.5c13.6 9.8 26.4 20.5 38.6 32-26.1 14.9-38.6 30.8-50.6 46.1-11.9 15.2-23.2 29.5-48.5 43.2-6.1 3.3-11.9 6-17.4 8.1L605 299c13.7-2.7 28.6-7.2 46-16.7 29-15.7 42.1-32.4 54.7-48.5 8.8-11.4 17.4-22.3 31.8-32.7z m72.4 68.3c4.2 5.1 8.2 10.4 12.1 15.7-2.1 1-4.2 2.1-6.4 3.3-28.9 15.6-42 32.2-54.6 48.3-9.1 11.6-17.8 22.7-32.7 33.4l-47.4-27.4c1.8-0.9 3.7-1.9 5.5-2.9 29-15.7 42.1-32.4 54.7-48.5 11.8-15.1 23-29.3 48-42.9 0 0 0.1 0 0.1-0.1 0.5-0.3 1-0.5 1.5-0.8 6.7 7.2 13.1 14.4 19.2 21.9z m-294.5 211H306.8L515.4 360v120.4z m272.9-75.6L747 381c12.9-10.6 21.4-21.3 29.7-31.8 11.9-15.1 23.1-29.3 48.1-42.9h0.1c3-1.6 5.9-3.1 8.7-4.4 8.7 13.3 16.5 27.1 23.4 41.3-2 1-4.1 2.1-6.2 3.2-28.7 15.5-41.7 32.1-54.3 48.2-2.7 3.4-5.4 6.8-8.2 10.2z m-657.8 62.7c5.8-49.3 20.9-96.5 44.9-140.2 24-43.8 55.7-81.8 94.2-113.2 39.8-32.4 85.2-56.3 135-70.8s100.9-18.8 151.9-12.9c49.3 5.8 96.5 20.9 140.2 44.9 8 4.4 15.8 9 23.4 13.9-13.2 10.7-21.8 21.6-30.2 32.2-11.9 15.2-23.2 29.5-48.5 43.2-25.5 13.8-44.5 15.8-64.7 17.9l-8.8-5.1c-9.9-7.1-23.4-8.2-34.7-1.7L142.4 501.4c-7.2 4.1-12.2 10.7-14.5 18-0.3-17.3 0.5-34.6 2.6-51.9z m713.9-30.3L805.9 415c2.2-2.7 4.3-5.4 6.4-8.1 11.9-15.2 23.2-29.5 48.4-43.1h0.1c1.5-0.8 3.1-1.6 4.6-2.4 5.9 14 11.1 28.4 15.4 43.1 0.2 0.8 0.5 1.6 0.7 2.4-17.1 9.8-28.1 20.1-37.1 30.3z" fill="#FF9E3E" /></svg>